<svg xmlns="http://www.w3.org/2000/svg" version="1.1" xmlns:xlink="http://www.w3.org/1999/xlink" xmlns:svgjs="http://svgjs.dev/svgjs" width="100%" height="100%" viewBox="0 0 1000 600"><rect width="1000" height="600" x="0" y="0" fill="#e2d3f4"/><g><circle r="166.66666666666666" cx="411.8819224039713" cy="434.1041414140674" fill="#013dc4" transform="matrix(0.5097560961444468,0,0,0.5097560961444468,0,78.71273703505)"/><path d="M339.97716202858186 497.18941420511135L340.85792287962335 497.18941420511135Q339.26766023190953 504.23550101344324 329.9462745583872 505.8012980819615L329.9462745583872 505.8012980819615Q321.30992510234154 507.39156072967523 313.5543364973373 503.8685173255093L313.5543364973373 503.8685173255093Q304.91798704129167 500.1742148669742 305.97000694670237 493.47064616738066L305.97000694670237 493.47064616738066Q304.91798704129167 483.2684996428168 316.73486179276495 449.09008550656813L316.73486179276495 449.09008550656813Q334.35007881359456 397.83469709179286 351.9652958344243 375.81567581575575L351.9652958344243 375.81567581575575Q356.5403591440009 370.1641270215729 359.79428117701525 368.50046763627233Q363.0482032100296 366.8368082509718 367.2807484108679 365.41780465762713Q371.5132936117061 363.99880106428253 376.0883569212827 362.77552210450267L376.0883569212827 362.77552210450267Q385.2384835404359 360.3044986057474 393.43445257096084 359.35034101711915Q401.63042160148575 358.37171784929524 408.1382656675145 361.28312177357134Q414.67057531273883 364.1945256978473 418.26701545449157 369.82160891283456Q421.8879211754398 375.4486921278218 422.7686820264813 383.13088399523923Q423.6494428775228 390.788610283461 422.2304392841782 399.1558383683551Q420.8359012700292 407.5230664532492 417.1415988114941 416.0615535925125Q413.4228307737634 424.6000407317757 407.79574755877616 432.01311122804157L407.79574755877616 432.01311122804157Q395.46509564419534 448.20932465552664 378.9018985287763 452.9556470194724L378.9018985287763 452.9556470194724L380.6634202308593 455.9649132605308Q382.9631846752454 459.48795666469675 386.21710670825973 463.72050186553497Q389.47102874127415 467.9285814871776 392.72495077428846 472.33238574238504Q396.00333838649846 476.7361899975925 398.6456209396229 481.13999425279985Q401.2879034927474 485.5437985080073 402.51118245252724 489.4338256001072L402.51118245252724 489.4338256001072Q405.32472406002086 498.07017505615283 398.1073781973198 501.93573656905716L398.1073781973198 501.93573656905716Q392.2845703487678 505.45877997322305 388.9572515781666 503.6972582711401L388.9572515781666 503.6972582711401Q387.53824798482196 502.81649742009864 386.11924439147737 501.4953561435364Q384.72470637732835 500.1742148669742 382.2536828785731 499.2934540159327L382.2536828785731 499.2934540159327Q371.8558117204444 502.27825467779553 366.3999875598264 494.00888890968383L366.3999875598264 494.00888890968383Q363.0482032100296 488.7243238034349 361.28668150794664 484.3205195482275Q359.5251598058637 479.91671529302005 358.3018808460838 476.93191463115727L358.3018808460838 476.93191463115727Q355.1213555506563 470.3996049859329 351.0845349833828 465.65328262198716L351.0845349833828 465.65328262198716Q349.12728864773504 470.3996049859329 346.6807307281754 477.81267548219876L346.6807307281754 477.81267548219876Q343.67146448711696 487.1340611557211 339.97716202858186 497.18941420511135L339.97716202858186 497.18941420511135ZM376.43087503002107 394.6541717963653L376.43087503002107 394.6541717963653Q373.10355625941986 402.2385013470003 371.8558117204444 405.22330200886313L371.8558117204444 405.22330200886313Q369.3847882216892 411.2173689117843 366.3999875598264 418.43471477448537L366.3999875598264 418.43471477448537Q365.86174481752323 422.3247418665852 365.5192267087849 423.89053893510345L365.5192267087849 423.89053893510345L367.99025020754016 421.4439810155438L370.975050869403 420.02497742219913Q374.15557616483056 418.2634557201162 376.797858717955 416.84445212677156Q379.4401412710795 415.44991411262254 381.5441810819008 413.3214087226056L381.5441810819008 413.3214087226056Q385.60546722836983 409.2845881553322 388.59026789023267 400.10999595698337L388.59026789023267 400.10999595698337Q388.59026789023267 398.3484742549004 389.20190737012257 396.5869525528174Q389.83801242920805 394.8254308507345 390.00927148357727 393.0639091486515L390.00927148357727 393.0639091486515Q390.7187732802496 389.1983476357472 386.8287461881497 387.6080849880334L386.8287461881497 387.6080849880334Q383.30570278398375 387.2655668792951 378.0211376777348 393.4308928365855L378.0211376777348 393.4308928365855Q376.9691177723242 394.6541717963653 376.43087503002107 394.6541717963653ZM452.3720328531534 474.46089113240197L452.3720328531534 474.46089113240197Q462.57417937771726 475.5129110378126 467.5896231128146 475.5129110378126Q472.6295324271075 475.5129110378126 482.8316789516714 474.093907444468L482.8316789516714 474.093907444468Q486.012204247099 475.1703929290743 486.52598141020655 476.7361899975925Q487.0642241525096 478.3264526453063 486.8929650981405 480.0145776098024Q486.7217060437713 481.678236995103 487.0642241525096 483.2684996428168Q487.40674226124804 484.8587622905306 490.41600850230645 485.91078219594124L490.41600850230645 485.91078219594124Q492.0062711500202 486.42455935904877 491.37016609093473 488.99344517458644Q490.7585266110448 491.5378654109285 488.48322774585426 494.5471316519869L488.48322774585426 494.5471316519869Q482.6604198973023 502.1069956234263 474.73357223792885 505.1162618644847L474.73357223792885 505.1162618644847Q462.0604022146098 508.2723215807167 454.81859077271315 508.81056432301983L454.81859077271315 508.81056432301983Q442.8549225460663 509.6913251740613 428.76274892940256 507.92980347197835L428.76274892940256 507.92980347197835Q413.2515717193942 505.1162618644847 413.78981446169735 495.0609088150944L413.78981446169735 495.0609088150944Q413.78981446169735 458.06895307135215 429.9860278891824 420.73447921887146L429.9860278891824 420.73447921887146Q435.2705929954313 408.57508635865986 441.9741616950248 395.1924145386684L441.9741616950248 395.1924145386684Q443.3686997091738 392.3788729311748 443.63782108032535 388.85582952700884Q443.90694245147694 385.3327861228429 444.0782015058461 381.98100177304616Q444.2494605602153 378.62921742324943 445.1302214112568 375.98693487012497Q446.0109822622983 373.3446523170005 448.8489894489875 372.29263241158986L448.8489894489875 372.29263241158986Q485.47396150479585 357.66221605262297 506.78348098416063 361.01400040241975L506.78348098416063 361.01400040241975Q514.1965514804265 361.1852594567889 516.5697126623994 366.0294441375171Q518.9428738443722 370.87362881824527 517.1079554047025 376.86769572116646Q515.2485713858372 382.86176262408765 509.86614396280584 388.14632773033657Q504.5081821189701 393.4308928365855 496.41007540522764 394.6541717963653L496.41007540522764 394.6541717963653Q486.012204247099 397.6634380374237 483.7124398027129 398.71545794283435L483.7124398027129 398.71545794283435Q479.30863554750545 400.8194977536557 477.37585479105337 404.34254115782164L477.37585479105337 404.34254115782164Q474.90483129229807 408.2325682499215 472.8007914814767 411.75561165408743Q470.6722860914598 415.2786550582534 469.7915252404183 419.31547562552686L469.7915252404183 419.31547562552686L469.1064890229416 423.2055027176267Q472.43380779354277 424.77129978614494 477.27799247427095 424.159660306255Q482.1221771549991 423.5480208263651 486.28132561825055 422.9363813464752Q490.41600850230645 422.3247418665852 492.9604287386485 422.83851902969275Q495.52931455418616 423.3767617719959 494.01244864405913 428.0496873983549Q492.52004831312775 432.69814744551826 488.55662448344106 438.5209552940703Q484.59320065375437 444.3437631426224 477.37585479105337 446.9860456957468L477.37585479105337 446.9860456957468Q472.8007914814767 447.86680654678827 471.11266651698054 448.307186972309Q469.44900713168 448.74756739782976 468.5682462806385 448.9188264521989L468.5682462806385 448.9188264521989Q467.34496732085864 449.09008550656813 461.5221594723066 449.43260361530645L461.5221594723066 449.43260361530645Q453.2527937041949 463.52477723197023 451.49127200211194 471.2803658369744L451.49127200211194 471.2803658369744Q450.78177020543967 474.46089113240197 452.3720328531534 474.46089113240197Z " fill="#55ffaa" transform="matrix(0.5097560961444468,0,0,0.5097560961444468,0,78.71273703505)"/><path d="M694.1980643392096 494.58845825053976L695.0322272326574 494.58845825053976Q693.5260997861544 501.26176139812253 684.6978758304979 502.744717653141L684.6978758304979 502.744717653141Q676.518445236412 504.25084509964404 669.173177535774 500.9141935258526L669.173177535774 500.9141935258526Q660.9937469416882 497.4153436116686 661.9901081755286 491.06643714487103L661.9901081755286 491.06643714487103Q660.9937469416882 481.40405029576675 672.1854324287801 449.03389579169317L672.1854324287801 449.03389579169317Q688.8686902977372 400.4902496313251 705.5519481666943 379.63617729512885L705.5519481666943 379.63617729512885Q709.8849609743261 374.28363206217176 712.9667294417862 372.7079910412147Q716.0484979092464 371.13235002025766 720.057114036093 369.7884209141472Q724.0657301629396 368.4444918080368 728.3987429705714 367.2859322338037L728.3987429705714 367.2859322338037Q737.0647685858353 364.9456418938528 744.8271177331973 364.04196542595093Q752.5894668805593 363.11511776656437 758.7530038154795 365.87248955323923Q764.9397119418844 368.6298613399141 768.3458770901298 373.95923538138646Q771.7752134298598 379.2886094228589 772.6093763233076 386.5643635490429Q773.4435392167555 393.8169464837423 772.0996101106451 401.7414939714969Q770.7788521960193 409.66604145925146 767.2800022818353 417.75278728739875Q763.7579811761666 425.8395331155459 758.4286071346942 432.8604041353987L758.4286071346942 432.8604041353987Q746.7503266264243 448.1997328982453 731.0634299913077 452.6949440462698L731.0634299913077 452.6949440462698L732.7317557782035 455.54500059888335Q734.9098477777617 458.88165217267476 737.9916162452218 462.8902682995214Q741.0733847126819 466.87571323488334 744.1551531801421 471.0465277021226Q747.2600928390868 475.21734216936187 749.7625815194303 479.3881566366011Q752.265070199774 483.55897110384035 753.423629774007 487.2431905499017L753.423629774007 487.2431905499017Q756.0883167947433 495.4226211439876 749.2528153067678 499.0836693985643L749.2528153067678 499.0836693985643Q743.7380717334181 502.42032097235574 740.586789691504 500.75199518546003L740.586789691504 500.75199518546003Q739.2428605853936 499.9178322920121 737.8989314792832 498.66658795184037Q736.5781735646574 497.4153436116686 734.2378832247065 496.5811807182207L734.2378832247065 496.5811807182207Q724.3901268437248 499.40806607934957 719.2229511426451 491.5762033575336L719.2229511426451 491.5762033575336Q716.0484979092464 486.5712259968465 714.3801721223506 482.40041152960725Q712.711846335455 478.229597062368 711.5532867612219 475.4027117012391L711.5532867612219 475.4027117012391Q708.5410318682157 469.21600357483425 704.7177852732464 464.72079242680974L704.7177852732464 464.72079242680974Q702.8640899544733 469.21600357483425 700.5469708060072 476.23687459468704L700.5469708060072 476.23687459468704Q697.6969142533936 485.06509855034346 694.1980643392096 494.58845825053976L694.1980643392096 494.58845825053976ZM728.7231396513569 397.477994738319L728.7231396513569 397.477994738319Q725.5718576094428 404.66106409856434 724.3901268437248 407.4879494596932L724.3901268437248 407.4879494596932Q722.049836503774 413.1648913734355 719.2229511426451 420.000392861411L719.2229511426451 420.000392861411Q718.7131849299826 423.6846123074723 718.3887882491973 425.1675685624907L718.3887882491973 425.1675685624907L720.7290785891482 422.85044941402447L723.555963950277 421.50652030791406Q726.5682188432831 419.83819452101835 729.0707075236267 418.49426541490794Q731.5731962039703 417.17350750028214 733.5659186716513 415.1576138411165L733.5659186716513 415.1576138411165Q737.4123364581053 411.33436724614717 740.2392218192341 402.6451704393987L740.2392218192341 402.6451704393987Q740.2392218192341 400.976844652503 740.8185016063507 399.3085188656073Q741.4209525849519 397.6401930787116 741.5831509253445 395.9718672918159L741.5831509253445 395.9718672918159Q742.2551154783997 392.31081903723924 738.5708960323384 390.8046915907362L738.5708960323384 390.8046915907362Q735.234244458547 390.4802949099509 730.2292670978599 396.31943516408586L730.2292670978599 396.31943516408586Q729.2329058640194 397.477994738319 728.7231396513569 397.477994738319ZM784.6120535123629 420.83455575485885L784.6120535123629 420.83455575485885Q789.2926341922647 416.3393446068343 795.039089680461 415.5746952878404Q800.8087163601421 414.83321716033123 805.2344139337125 416.8259396280122Q809.6369403157985 418.84183328717785 811.722347549418 423.2675308607484Q813.8077547830377 427.6700572428343 811.1430677623015 433.3469991565766L811.1430677623015 433.3469991565766Q805.4661258485592 441.68862809105514 802.1294742747677 451.3741861316441Q798.7928227009763 461.03657298074836 795.9659373398475 470.88432936172995L795.9659373398475 470.88432936172995Q811.3052661026942 461.2219425126257 821.6627886963383 442.0361959633251L821.6627886963383 442.0361959633251Q824.6518723978598 436.3592540495828 828.1738935035286 430.5201137954478L828.1738935035286 430.5201137954478L830.6763821838721 425.8395331155459L835.6813595445591 417.84547205333735Q836.6777207783997 414.6710188199386 839.1802094587432 413.74417116055207Q841.6826981390867 412.8404946926502 844.6022682661543 412.8404946926502Q847.5218383932217 412.8404946926502 850.5109220947433 412.9100082671042Q853.5231769877494 413.0026930330429 856.0256656680929 411.33436724614717Q858.5281543484365 409.66604145925146 861.9574906881666 410.0831229059754Q865.3636558364119 410.5002043526993 868.1210276230868 412.33072847998767Q870.8783994097615 414.161252607276 872.291842090326 416.75642605355824Q873.7052847708904 419.3284283083558 872.5467251966572 421.8309169886993L872.5467251966572 421.8309169886993Q865.5258541768045 436.84584907076066 853.3609786473567 477.71983084970543L853.3609786473567 477.71983084970543Q850.5109220947433 486.89562267763176 848.0084334143996 493.0823308040367L848.0084334143996 493.0823308040367Q843.8376189471604 498.2495065051164 837.5118836718475 500.08003063240477Q831.16297720505 501.9105547596931 825.5787200572463 501.16907663218393Q819.9944629094426 500.42759850467473 816.6578113356512 497.32265884572996Q813.3211597618598 494.2408903782698 815.1516838891481 489.58348088985264L815.1516838891481 489.58348088985264Q810.4711032092463 493.406727484822 805.4661258485592 496.5811807182207Q800.461148487872 499.75563395161953 793.3707638935654 500.75199518546003Q786.2803792992586 501.7483564193005 779.7924456835531 500.1727153983434Q773.2813408763628 498.5739031859017 768.6934449623997 494.0786920378772Q764.1055490484365 489.58348088985264 763.7579811761666 482.07601484882196L763.7579811761666 482.07601484882196Q762.7616199423261 455.707198939276 784.6120535123629 420.83455575485885ZM887.2140894064487 421.50652030791406L887.2140894064487 421.50652030791406Q887.5616572787186 418.3320670745153 891.2227055332953 416.3393446068343Q894.9069249793566 414.3234509476687 899.4021361273811 414.3234509476687Q903.8973472754057 414.3234509476687 908.1608465085836 416.4088581812883Q912.4243457417616 418.49426541490794 913.9073019967799 423.499242775595L913.9073019967799 423.499242775595Q928.0880711853935 411.1721689057546 939.7663516936633 413.9990542668834L939.7663516936633 413.9990542668834Q943.7749678205099 414.83321716033123 946.6250243731234 418.6796349467852L946.6250243731234 418.6796349467852Q955.1288516479946 410.5002043526993 965.4632030501541 407.99771567235575L965.4632030501541 407.99771567235575Q978.4854126645345 407.4879494596932 984.1623545782768 413.9990542668834L984.1623545782768 413.9990542668834Q984.9965174717246 414.83321716033123 985.8306803651725 415.82957839417173L985.8306803651725 415.82957839417173Q988.1477995136388 418.3320670745153 988.4953673859087 419.16622996796315L988.4953673859087 419.16622996796315Q991.4844510874301 423.84681064786497 990.1636931728044 440.69226685721463L990.1636931728044 440.69226685721463Q988.3331690455161 462.5427004272514 981.8220642383259 484.5785035291655L981.8220642383259 484.5785035291655Q978.3232143241419 495.7470178247729 975.4731577715283 496.07141450555815L975.4731577715283 496.07141450555815Q973.8048319846326 496.4189823778281 972.3913893040682 496.07141450555815Q970.9779466235038 495.7470178247729 969.8889006237247 495.65433305883425Q968.7998546239456 495.5848194843802 968.6376562835529 497.5775419520612L968.6376562835529 497.5775419520612Q965.3010047097615 501.9105547596931 958.4655032217861 501.9105547596931L958.4655032217861 501.9105547596931Q951.7922000742032 501.9105547596931 947.1116193943013 497.73974029245386L947.1116193943013 497.73974029245386Q941.9444436932216 493.406727484822 943.5200847141788 487.49807365623303Q945.1188969266204 481.5662486361594 947.1116193943013 475.3100269353005Q949.127513053467 469.0538052344416 951.4446322019334 462.38050208685877L951.4446322019334 462.38050208685877Q955.45324832878 450.7022215785889 960.2960273490743 438.0275798364785L960.2960273490743 438.0275798364785Q956.7971774348903 442.0361959633251 950.7958388403628 453.1120254929938Q944.7713290543505 464.2110262141471 943.288372799332 466.3891182137054L943.288372799332 466.3891182137054Q940.4383162467185 472.0660601274477 938.6077921194302 475.3100269353005Q936.7772679921419 478.5539937431533 933.6954995246817 480.47720263638024Q930.590559865737 482.40041152960725 928.0185576109394 482.9101777422698Q925.4233841646573 483.39677276344776 923.0830938247063 483.07237608266246L923.0830938247063 483.07237608266246Q917.5915214428413 482.2382131892146 915.2512311028904 478.39179540276064L915.2512311028904 478.39179540276064Q914.7414648902278 477.07103748813483 914.2548698690499 475.7271083820244Q913.7451036563873 474.383179275914 913.420706975602 472.0660601274477L913.420706975602 472.0660601274477Q912.9109407629395 466.87571323488334 914.7414648902278 455.19743272661344L914.7414648902278 455.19743272661344L914.4170682094425 455.707198939276Q916.4097906771235 453.714476471595 915.7609973155529 454.7108377054355L915.7609973155529 454.7108377054355Q909.0876941679702 464.2110262141471 907.7437650618597 466.87571323488334Q906.3998359557493 469.5635714471042 904.9168797007309 472.80753825495697Q903.4107522542278 476.0515050628097 901.3948585950621 480.3150042959876Q899.4021361273811 484.5785035291655 898.243576553148 487.91515510295693Q897.0618457874302 491.25180667674834 895.3935200005345 494.40308871866245L895.3935200005345 494.40308871866245Q887.8860539595039 507.4252983330428 869.0478752824732 504.92280965269924L869.0478752824732 504.92280965269924Q865.0392591556266 504.4130434400367 862.1892026030131 502.9996007594723Q859.3623172418843 501.58615807890783 859.8720834545469 498.759272717779L859.8720834545469 498.759272717779Q861.1928413691727 492.0859695701962 866.0356203894671 476.5612712754723L866.0356203894671 476.5612712754723Q875.5358088981787 445.8594425582944 877.3895042169518 437.031218602638L877.3895042169518 437.031218602638Q878.5480637911849 434.01896370963186 879.4749114505714 430.84451047623304Q880.3785879184733 427.6700572428343 881.3749491523137 425.352938094368L881.3749491523137 425.352938094368Q883.3908428114794 419.83819452101835 887.2140894064487 421.50652030791406ZM945.1188969266204 462.70489876764407L945.1188969266204 462.70489876764407L945.1188969266204 463.05246663991403Q945.4432936074057 462.38050208685877 945.1188969266204 462.70489876764407ZM1023.8546055915037 493.2445291444293L1023.8546055915037 494.58845825053976L1019.6837911242645 498.41170484550906Q1016.3471395504731 500.75199518546003 1013.1726863170744 501.26176139812253L1013.1726863170744 501.26176139812253L1013.3580558489516 501.42395973851524L1012.5238929555038 502.09592429157044Q1000.6602429153567 503.09228552541094 995.006472193099 496.905577399006L995.006472193099 496.905577399006Q989.1673319389639 490.4176437833005 992.5039835127553 479.8979228492637L992.5039835127553 479.8979228492637Q999.8260800219088 438.3519765172637 1013.0104879766817 402.83053997127604L1013.0104879766817 402.83053997127604Q1021.8618831238228 378.80201440168094 1030.041313717909 370.6225838075951L1030.041313717909 370.6225838075951Q1034.3743265255407 366.4517693403558 1038.0353747801173 368.1200951272515L1038.0353747801173 368.1200951272515Q1039.031736013958 364.11147900040487 1041.5342246943014 361.8638734263926Q1044.036713374645 359.61626785238036 1047.0489682676512 359.1991864056564Q1050.061223160657 358.7821049589325 1052.8881085217859 360.1955476394969Q1055.7149938829148 361.60899032006137 1057.3138060953565 365.2932097661227Q1058.8894471163135 368.9542580206994 1058.6345640099821 372.3835943604294Q1058.4028520951356 375.7897595086748 1057.1516077549638 379.05689750801224Q1055.900363414792 382.300864315865 1054.1393528619578 385.47531754926376Q1052.3783423091236 388.6497707826626 1050.895386054105 391.80105282457663L1050.895386054105 391.80105282457663Q1040.2134667796754 417.49790418106744 1035.6950844401663 429.84814924239254L1035.6950844401663 429.84814924239254L1037.2012118866696 428.8517880085521Q1048.2075278418843 421.50652030791406 1060.7199712436018 422.3406832013619L1060.7199712436018 422.3406832013619Q1066.2347148169515 422.85044941402447 1070.6604123905222 425.26025332842937Q1075.0861099640929 427.6700572428343 1077.1715171977125 432.51283626312875Q1079.2569244313318 437.3556152834232 1078.839842984608 444.95576609039256Q1078.422761537884 452.53274570587723 1075.9202728575406 460.61949153402446Q1073.417784177197 468.72940855365636 1069.154284944019 476.39907293507963Q1064.890785710841 484.06873731650296 1059.7236100097616 489.7456792302453L1059.7236100097616 489.7456792302453Q1048.0453295014913 502.58251931274833 1037.2012118866696 499.40806607934957L1037.2012118866696 499.40806607934957Q1032.5438023982522 500.08003063240477 1026.3570942718475 495.0750532717177L1026.3570942718475 495.0750532717177Q1025.0363363572214 493.9164936974845 1023.8546055915037 493.2445291444293L1023.8546055915037 493.2445291444293ZM1028.372987931013 482.5626098699999L1028.372987931013 482.5626098699999Q1030.8754766113566 479.73572450887104 1036.9463287803383 471.88069059557046Q1043.0403521408043 464.0488278737545 1045.125759374424 459.62313030018396Q1047.2111666080436 455.19743272661344 1044.036713374645 451.3741861316441L1044.036713374645 451.3741861316441Q1040.8854313327308 447.36557000479746 1036.0426523124363 457.37552472617165L1036.0426523124363 457.37552472617165Q1028.372987931013 473.3868180420735 1028.372987931013 482.5626098699999ZM1103.772045022105 422.85044941402447L1103.772045022105 422.85044941402447Q1107.270894936289 420.3479607336809 1112.4380706373686 421.6687186483067L1112.4380706373686 421.6687186483067Q1113.457603062694 421.8309169886993 1114.4539642965342 421.8309169886993L1114.4539642965342 421.8309169886993Q1118.115012551111 414.3234509476687 1127.1286060386446 413.9990542668834L1127.1286060386446 413.9990542668834Q1129.4688963785957 413.8368559264907 1133.639710845835 413.1648913734355Q1137.8105253130743 412.4929268203803 1143.719179141663 413.4892880542208Q1149.6510041617366 414.50882047954593 1154.1462153097614 417.0113091598895L1154.1462153097614 417.0113091598895Q1163.993971690743 422.3406832013619 1166.0098653499085 432.35063792273615L1166.0098653499085 432.35063792273615Q1169.9953102852705 447.0411733240122 1164.8281345841906 464.3732245545398L1164.8281345841906 464.3732245545398Q1159.3365622023257 483.55897110384035 1146.1521542475527 495.0750532717177L1146.1521542475527 495.0750532717177Q1140.1508156530253 500.42759850467473 1133.4775125054425 501.84104118523913Q1126.8042093578597 503.25448386580354 1121.4516641249024 503.4166822061962Q1116.12229008343 503.57888054658883 1111.6965925098593 503.50936697213484Q1107.270894936289 503.4166822061962 1103.1000804690498 502.58251931274833L1103.1000804690498 502.58251931274833Q1094.086486981516 500.75199518546003 1088.2473467273812 494.0786920378772L1088.2473467273812 494.0786920378772Q1081.4118452394055 486.5712259968465 1082.408206473246 470.7221310213373L1082.408206473246 470.7221310213373Q1083.0801710263013 456.7035601731165 1089.4985910675528 442.453277410049Q1095.940182300289 428.1798234554969 1103.772045022105 422.85044941402447ZM1133.1299446331723 456.3791634923312L1133.1299446331723 456.3791634923312Q1128.959130165933 457.69992140695695 1125.2980819113563 457.53772306656435L1125.2980819113563 457.53772306656435Q1123.467557784068 459.36824719385265 1122.030943912019 461.4536544274723Q1120.6175012314548 463.5390616610919 1118.2772108915037 465.3000722139263Q1115.9600917430375 467.06108276676065 1115.9600917430375 466.7135148944907L1115.9600917430375 466.7135148944907Q1113.1100351904238 470.7221310213373 1111.2795110631355 474.98563025451523Q1109.4489869358472 479.2259582962085 1111.2795110631355 483.55897110384035L1111.2795110631355 483.55897110384035Q1117.9528142107183 484.2309356568956 1121.127267444117 483.2345744230551Q1124.301720677516 482.2382131892146 1127.0359212727062 479.3881566366011Q1129.793293059381 476.5612712754723 1131.299420505884 472.7148534890183L1131.299420505884 472.7148534890183Q1134.3116753988902 465.5549553202576 1133.1299446331723 456.3791634923312ZM1257.582414097295 473.0624213612882L1257.582414097295 473.0624213612882Q1267.267972137884 474.0587825951287 1272.0180663922397 474.0587825951287Q1276.7681606465958 474.0587825951287 1286.4537186871844 472.7148534890183L1286.4537186871844 472.7148534890183Q1289.4659735801906 473.7343859143434 1289.9525686013685 475.21734216936187Q1290.4623348140312 476.72346961586493 1290.3001364736383 478.32228182830664Q1290.114766941761 479.8979228492637 1290.4623348140312 481.40405029576675Q1290.7867314948162 482.9101777422698 1293.63678804743 483.9065389761103L1293.63678804743 483.9065389761103Q1295.119744302448 484.39313399728826 1294.5404645153317 486.8261091031778Q1293.9611847282154 489.2359130175827 1291.7830927286568 492.0859695701962L1291.7830927286568 492.0859695701962Q1286.291520346792 499.2458677389569 1278.784054305761 502.09592429157044L1278.784054305761 502.09592429157044Q1266.7582059252213 505.0850079930919 1259.9227044372458 505.59477420575445L1259.9227044372458 505.59477420575445Q1248.591991801246 506.42893709920236 1235.2453855060803 504.76061131230665L1235.2453855060803 504.76061131230665Q1220.5548501048042 502.09592429157044 1221.064616317467 492.5725645913741L1221.064616317467 492.5725645913741Q1221.064616317467 457.53772306656435 1236.4039450803134 422.17848486096926L1236.4039450803134 422.17848486096926Q1241.4089224410004 410.66240269309196 1247.757828907798 397.98776095098157L1247.757828907798 397.98776095098157Q1249.0785868224239 395.32307393024536 1249.333469928755 391.98642235645394Q1249.5883530350866 388.6497707826626 1249.750551375479 385.47531754926376Q1249.9127497158715 382.300864315865 1250.7469126093197 379.79837563552144Q1251.5810755027674 377.2958869551779 1254.2457625235033 376.29952572133743L1254.2457625235033 376.29952572133743Q1288.956207367528 362.44315321350916 1309.1383151506693 365.617606446908L1309.1383151506693 365.617606446908Q1316.159186170522 365.7798047873006 1318.406791744534 370.3677007012638Q1320.6543973185467 374.95559661522697 1318.893386765712 380.6325385289693Q1317.1555474043626 386.3094804427116 1312.0578852777367 391.31445780339874Q1306.9833943425956 396.31943516408586 1299.2905587696878 397.477994738319L1299.2905587696878 397.477994738319Q1289.4659735801906 400.3280512909325 1287.287881580632 401.324412524773L1287.287881580632 401.324412524773Q1283.1170671133932 403.31713499245393 1281.286542986105 406.65378656624534L1281.286542986105 406.65378656624534Q1278.9462526461539 410.3380060123067 1276.9535301784726 413.6746575860981Q1274.937636519307 417.0113091598895 1274.1034736258594 420.83455575485885L1274.1034736258594 420.83455575485885L1273.4315090728041 424.5187752009202Q1276.6059623062029 426.00173145593857 1281.193858220166 425.422451668822Q1285.7817541341292 424.8431718817055 1289.6976854950371 424.26389209458887Q1293.63678804743 423.6846123074723 1296.0465919618346 424.1712073286502Q1298.4563958762396 424.6809735413128 1297.0429531956752 429.1066711148834Q1295.6295105151107 433.50919749696925 1291.8757774945957 439.0239410703189Q1288.1220444740802 444.53868464366866 1281.286542986105 447.0411733240122L1281.286542986105 447.0411733240122Q1276.9535301784726 447.87533621746 1275.3547179660313 448.292417664184Q1273.779076945074 448.70949911090787 1272.9449140516263 448.8716974513005L1272.9449140516263 448.8716974513005Q1271.7631832859083 449.03389579169317 1266.2716109040434 449.3582924724784L1266.2716109040434 449.3582924724784Q1258.416576990743 462.70489876764407 1256.748251203847 470.0501664682821L1256.748251203847 470.0501664682821Q1256.0994578422765 473.0624213612882 1257.582414097295 473.0624213612882ZM1335.1595631879454 421.8309169886993L1335.1595631879454 421.8309169886993Q1346.3512486750374 417.3357058406748 1350.1744952700064 421.6687186483067L1350.1744952700064 421.6687186483067Q1352.190388929172 424.0090089882576 1352.190388929172 428.1798234554969L1352.190388929172 428.1798234554969L1352.190388929172 429.01398634894474Q1358.3539258640926 421.8309169886993 1373.7164258184239 417.0113091598895L1373.7164258184239 417.0113091598895Q1389.889917474718 412.00633179920237 1400.4096384087547 414.161252607276L1400.4096384087547 414.161252607276Q1414.0806413847058 417.0113091598895 1415.7489671716016 432.02624124195086L1415.7489671716016 432.02624124195086Q1417.092896277712 444.70088298406125 1409.9098269174665 464.2110262141471L1409.9098269174665 464.2110262141471Q1407.5695365775155 469.21600357483425 1406.318292237344 472.29777204229435Q1405.067047897172 475.4027117012391 1404.0706866633318 477.9052003815827L1404.0706866633318 477.9052003815827Q1401.8925946637733 482.5626098699999 1397.235185175356 489.0737146771901L1397.235185175356 489.0737146771901Q1394.57049815462 494.0786920378772 1388.9630698153314 496.74337905861336Q1383.378812667528 499.40806607934957 1377.9567538601168 499.82514752607347Q1372.534695052706 500.2422289727974 1369.0358451385218 498.15682173917776Q1365.5369952243377 496.07141450555815 1367.0431226708406 491.5762033575336L1367.0431226708406 491.5762033575336Q1370.8663692658101 481.2418519553741 1373.3688579461536 472.7148534890183Q1375.8713466264971 464.2110262141471 1378.5360336472336 458.20968761961956L1378.5360336472336 458.20968761961956Q1381.038522327577 449.7058603447484 1379.2079982002888 447.5277683451901L1379.2079982002888 447.5277683451901Q1377.701870753786 445.8594425582944 1374.0408224992088 448.03753455785267L1374.0408224992088 448.03753455785267Q1370.8663692658101 450.0302570255336 1369.5456113511846 452.6949440462698L1369.5456113511846 452.6949440462698Q1366.5333564581783 454.87303604582814 1358.1917275236997 470.0501664682821L1358.1917275236997 470.0501664682821Q1355.851437183749 474.22098093552137 1353.6038316097365 478.32228182830664Q1351.3562260357244 482.40041152960725 1349.4330171424972 485.89926144379126Q1347.5098082492705 489.3981113579754 1346.096365568706 491.7384016979263Q1344.6829228881415 494.0786920378772 1343.5938768883625 494.82017016538634Q1342.504830888583 495.5848194843802 1341.7633527610742 495.83970259071157Q1340.9987034420801 496.07141450555815 1340.5121084209022 496.4189823778281Q1340.0023422082395 496.74337905861336 1339.6779455274545 498.5739031859017L1339.6779455274545 498.5739031859017Q1339.0059809743993 502.42032097235574 1331.6607132737613 504.25084509964404L1331.6607132737613 504.25084509964404Q1319.8202344250985 507.26309999265015 1310.3200459163868 503.25448386580354L1310.3200459163868 503.25448386580354Q1307.145592682988 501.9105547596931 1305.3150685556998 499.5934356112268L1305.3150685556998 499.5934356112268Q1301.4686507692459 491.9006000383189 1318.4763053189881 447.36557000479746L1318.4763053189881 447.36557000479746Q1324.5008151050001 431.6786733696809 1326.3313392322889 428.68958966815944L1326.3313392322889 428.68958966815944Q1330.5021536995282 422.3406832013619 1331.7533980396997 421.50652030791406Q1333.0046423798717 420.6723574144662 1335.1595631879454 421.8309169886993ZM1452.9619006959697 420.000392861411L1452.9619006959697 420.000392861411Q1453.7960635894174 430.01034758278524 1454.4448569509877 440.1129870700981Q1455.1168215040434 450.1924553659263 1456.4607506101538 460.2024100873005L1456.4607506101538 460.2024100873005Q1459.4498343116752 454.0388731523803 1462.0450077579576 447.2033716644048Q1464.6401812042395 440.3678701764294 1467.629264905761 433.69456702884656L1467.629264905761 433.69456702884656Q1474.8123342660065 418.00767039373 1483.47835988127 410.66240269309196L1483.47835988127 410.66240269309196Q1488.8309051142273 404.823262438957 1499.4896531971717 404.823262438957L1499.4896531971717 404.823262438957Q1505.8385596639696 404.823262438957 1507.5068854508654 408.83187856580366L1507.5068854508654 408.83187856580366Q1508.341048344313 410.8246010334846 1506.9971192382027 414.161252607276L1506.9971192382027 414.161252607276Q1515.1765498322884 420.000392861411 1510.5191403438716 427.6700572428343L1510.5191403438716 427.6700572428343Q1509.1752112377608 429.68595090199995 1507.8312821316504 431.35427668889565L1507.8312821316504 431.35427668889565Q1500.6713839628896 443.35695387795084 1494.670045368362 453.52910693971774L1494.670045368362 453.52910693971774Q1484.8222889873805 470.39773434055206 1476.9672550740802 482.40041152960725L1476.9672550740802 482.40041152960725Q1474.3025680533437 486.4090276564539 1469.552473798988 491.32132025120234Q1464.8023795446325 496.25678403743547 1459.1254376308898 499.75563395161953L1459.1254376308898 499.75563395161953Q1445.7788313357241 508.4216595668833 1437.9469686139082 502.93008718501824L1437.9469686139082 502.93008718501824Q1432.756621721344 502.25812263196303 1428.2614105733196 499.5934356112268Q1423.7661994252949 496.905577399006 1421.4259090853438 492.5725645913741L1421.4259090853438 492.5725645913741Q1417.9270591711597 483.39677276344776 1423.0942348722397 450.5400232381962L1423.0942348722397 450.5400232381962Q1424.2527944464728 443.1947555375582 1424.6003623187426 439.53370728298154Q1424.924758999528 435.84948783692016 1425.4345252121902 432.8604041353987Q1425.9211202333686 429.84814924239254 1426.2686881056384 427.1834622216564Q1426.5930847864238 424.5187752009202 1426.9174814672087 421.76140341424536Q1427.265049339479 419.0040316275705 1428.423608913712 416.6637412876196L1428.423608913712 416.6637412876196Q1431.2736654663254 411.33436724614717 1438.781131507356 410.8246010334846L1438.781131507356 410.8246010334846L1440.7738539750371 410.8246010334846Q1443.7861088680434 411.4965655865398 1446.4507958887793 412.33072847998767L1446.4507958887793 412.33072847998767Q1450.946007036804 413.9990542668834 1452.452134483307 418.6796349467852L1452.452134483307 418.6796349467852Q1452.6143328236994 419.16622996796315 1452.9619006959697 420.000392861411ZM1524.699909532485 421.8309169886993L1524.699909532485 421.8309169886993Q1526.8548303405582 416.3393446068343 1535.0342609346444 414.3234509476687L1535.0342609346444 414.3234509476687Q1542.7039253160679 412.33072847998767 1549.3772284636507 414.83321716033123L1549.3772284636507 414.83321716033123Q1556.212729951626 417.49790418106744 1555.5639365900556 423.499242775595L1555.5639365900556 423.499242775595Q1553.7102412712825 429.33838302973 1550.976040676092 437.51781362381587Q1548.2186688894171 445.69724421790175 1545.716180209074 454.36326983316553L1545.716180209074 454.36326983316553Q1539.0428770614913 476.0515050628097 1538.0465158276506 485.41266642261337L1538.0465158276506 485.41266642261337Q1538.0465158276506 500.08003063240477 1532.3695739139084 501.0763918662453L1532.3695739139084 501.0763918662453Q1530.863446467405 501.26176139812253 1529.3573190209022 501.42395973851524L1529.3573190209022 501.42395973851524Q1525.3487028940554 501.9105547596931 1524.1901433198223 504.76061131230665L1524.1901433198223 504.76061131230665Q1523.518178766767 509.41802080072375 1515.3387481726813 508.4216595668833L1515.3387481726813 508.4216595668833Q1507.18248877008 507.4252983330428 1502.3397097497855 501.7483564193005L1502.3397097497855 501.7483564193005Q1496.8249661764357 495.4226211439876 1501.6677451967303 487.4053888902944L1501.6677451967303 487.4053888902944Q1506.000758004362 467.06108276676065 1514.6899548111105 443.5191522183435L1514.6899548111105 443.5191522183435Q1520.3437255333683 428.50422013628213 1524.699909532485 421.8309169886993ZM1558.0664252703991 367.12373389341104L1558.553020291577 367.12373389341104Q1568.4007766725585 367.79569844646625 1573.0813573524601 372.1287112540981L1573.0813573524601 372.1287112540981Q1578.4107313939326 376.7861207425153 1572.409392799405 381.79109810320244L1572.409392799405 381.79109810320244Q1571.8996265867427 383.64479342197546 1570.3934991402393 385.79971423004906L1570.3934991402393 385.79971423004906Q1560.05914773808 396.1572368236932 1553.0614479097117 399.6560867378773L1553.0614479097117 399.6560867378773Q1543.5380882095155 404.66106409856434 1538.0465158276506 402.6451704393987L1538.0465158276506 402.6451704393987Q1532.3695739139084 400.3280512909325 1535.868423828092 392.6352157180245L1535.868423828092 392.6352157180245L1536.8647850619327 391.4766561437914Q1537.3745512745954 385.12774967699386 1545.0442156560184 374.6311999344417L1545.0442156560184 374.6311999344417Q1546.8747397833072 372.1287112540981 1548.2186688894171 371.13235002025766L1548.2186688894171 371.13235002025766Q1552.7138800374419 368.4444918080368 1558.0664252703991 367.12373389341104L1558.0664252703991 367.12373389341104ZM1572.8959878205828 422.85044941402447L1572.8959878205828 422.85044941402447Q1576.4180089262518 420.3479607336809 1581.5851846273313 421.6687186483067L1581.5851846273313 421.6687186483067Q1582.581545861172 421.8309169886993 1583.5779070950125 421.8309169886993L1583.5779070950125 421.8309169886993Q1587.262126541074 414.3234509476687 1596.252548837123 413.9990542668834L1596.252548837123 413.9990542668834Q1598.592839177074 413.8368559264907 1602.7636536443129 413.1648913734355Q1606.9344681115522 412.4929268203803 1612.8662931316258 413.4892880542208Q1618.774946960215 414.50882047954593 1623.293329299724 417.0113091598895L1623.293329299724 417.0113091598895Q1633.1410856807056 422.3406832013619 1635.1338081483868 432.35063792273615L1635.1338081483868 432.35063792273615Q1639.1424242752332 447.0411733240122 1633.9752485741533 464.3732245545398L1633.9752485741533 464.3732245545398Q1628.460505000804 483.55897110384035 1615.2760970460308 495.0750532717177L1615.2760970460308 495.0750532717177Q1609.2747584515032 500.42759850467473 1602.6014553039204 501.84104118523913Q1595.9281521563375 503.25448386580354 1590.5987781148651 503.4166822061962Q1585.2462328819083 503.57888054658883 1580.8205353083376 503.50936697213484Q1576.4180089262518 503.4166822061962 1572.2471944590125 502.58251931274833L1572.2471944590125 502.58251931274833Q1563.2336009714786 500.75199518546003 1557.394460717344 494.0786920378772L1557.394460717344 494.0786920378772Q1550.5589592293682 486.5712259968465 1551.5553204632088 470.7221310213373L1551.5553204632088 470.7221310213373Q1552.227285016264 456.7035601731165 1558.6457050575154 442.453277410049Q1565.064125098767 428.1798234554969 1572.8959878205828 422.85044941402447ZM1602.277058623135 456.3791634923312L1602.277058623135 456.3791634923312Q1598.1062441558956 457.69992140695695 1594.4220247098347 457.53772306656435L1594.4220247098347 457.53772306656435Q1592.591500582546 459.36824719385265 1591.178057901982 461.4536544274723Q1589.7646152214174 463.5390616610919 1587.4243248814664 465.3000722139263Q1585.0840345415154 467.06108276676065 1585.0840345415154 466.7135148944907L1585.0840345415154 466.7135148944907Q1582.257149180387 470.7221310213373 1580.4034538616138 474.98563025451523Q1578.5729297343255 479.2259582962085 1580.4034538616138 483.55897110384035L1580.4034538616138 483.55897110384035Q1587.0767570091966 484.2309356568956 1590.2512102425953 483.2345744230551Q1593.425663475994 482.2382131892146 1596.183035262669 479.3881566366011Q1598.9404070493438 476.5612712754723 1600.4233633043618 472.7148534890183L1600.4233633043618 472.7148534890183Q1603.435618197368 465.5549553202576 1602.277058623135 456.3791634923312ZM1697.186258944313 498.0873081647238L1697.186258944313 498.0873081647238Q1690.6983253286076 503.4166822061962 1681.7542454155277 506.174053992871Q1672.8333366939323 508.93142577954586 1663.819743206399 509.0936241199385Q1654.82932091035 509.25582246033116 1646.9742869970491 506.91553212038025Q1639.1424242752332 504.59841297191394 1634.624041935724 499.5934356112268L1634.624041935724 499.5934356112268Q1629.2946678942517 493.9164936974845 1630.9629936811475 488.2395517837422L1630.9629936811475 488.2395517837422Q1631.7971565745952 485.89926144379126 1633.8825638082149 484.5785035291655Q1635.9679710418345 483.2345744230551 1638.9802259348407 483.9065389761103L1638.9802259348407 483.9065389761103Q1640.9729484025215 484.06873731650296 1641.899796061908 482.8174929763312Q1642.8034725298098 481.5662486361594 1643.475437082865 479.99060761520235Q1644.1474016359202 478.39179540276064 1644.9815645293684 476.9783527221962Q1645.815727422816 475.5649100416318 1647.6462515501044 475.5649100416318L1647.6462515501044 475.5649100416318Q1677.004151161172 476.39907293507963 1678.1858819268896 470.39773434055206L1678.1858819268896 470.39773434055206Q1676.169988267724 468.54403902177904 1673.2504181406566 467.22328110715324Q1670.3308480135888 465.87935200104283 1667.3417643120674 464.5585940864171L1667.3417643120674 464.5585940864171Q1659.9964966114294 461.2219425126257 1657.494007931086 457.21332638577906L1657.494007931086 457.21332638577906Q1654.3195546976872 455.54500059888335 1652.6512289107914 449.1960941320858L1652.6512289107914 449.1960941320858Q1651.8170660173437 446.36920877095696 1651.8170660173437 443.35695387795084Q1651.8170660173437 440.3678701764294 1652.8134272511843 437.8653814960858L1652.8134272511843 437.8653814960858Q1652.3268322300064 431.35427668889565 1660.8306595048775 423.499242775595L1660.8306595048775 423.499242775595Q1663.170949844828 421.3443219675214 1666.6697997590122 418.84183328717785Q1670.1686496731963 416.3393446068343 1677.1663495015646 413.9990542668834Q1684.1872205214172 411.65876392693247 1691.1154067753314 410.5697179271533Q1698.0204218377608 409.50384311885887 1703.627850177049 409.8282397996441Q1709.2121073248527 410.1526364804294 1711.6219112392578 412.4929268203803Q1714.0548863451472 414.83321716033123 1715.4683290257117 418.3320670745153Q1716.8817717062761 421.8309169886993 1716.3720054936134 425.1675685624907L1716.3720054936134 425.1675685624907Q1715.0512475789878 432.6750346035214 1704.0449316237732 435.5250911561349L1704.0449316237732 435.5250911561349Q1690.1885591159448 437.51781362381587 1690.6983253286076 439.1861394107116L1690.6983253286076 439.1861394107116Q1690.6983253286076 439.53370728298154 1689.5165945628896 440.02030230415943L1689.5165945628896 440.02030230415943Q1702.3766058368774 448.8716974513005 1707.3815831975644 457.37552472617165L1707.3815831975644 457.37552472617165Q1714.2170846855397 469.0538052344416 1709.3743056652456 483.39677276344776L1709.3743056652456 483.39677276344776Q1710.2084685586933 488.0773534433496 1701.032676730767 495.0750532717177L1701.032676730767 495.0750532717177Q1698.8545847312084 496.74337905861336 1697.186258944313 498.0873081647238Z " fill="#013dc4" transform="matrix(0.5097560961444468,0,0,0.5097560961444468,0,78.71273703505)"/></g></svg>